<svg id="icons" xmlns="http://www.w3.org/2000/svg" viewBox="0 0 80 80"><title>debug</title><circle cx="40" cy="40" r="38.5" fill="#fff" stroke="silver" stroke-width="3"/><path d="M30.00043,25.12152,35,30.12109v3.91047A6.494,6.494,0,0,0,27.35266,44.5,6.49842,6.49842,0,1,0,38,49.5V28.87891l-5.87848-5.87848ZM31.5,53A3.5,3.5,0,1,1,35,49.5,3.50424,3.50424,0,0,1,31.5,53ZM35,44.03156A6.45463,6.45463,0,0,0,31.5,43,3.5,3.5,0,1,1,35,39.5ZM52.64734,44.5A6.49358,6.49358,0,0,0,45,34.03156V30.12109l4.99957-4.99957-2.12109-2.12109L42,28.87891V49.5a6.5,6.5,0,1,0,10.64734-5ZM48.5,53A3.5,3.5,0,1,1,52,49.5,3.50424,3.50424,0,0,1,48.5,53Zm0-10A6.45463,6.45463,0,0,0,45,44.03156V39.5A3.5,3.5,0,1,1,48.5,43Z" fill="#ff5757"/></svg>