<?xml version="1.0" encoding="utf-8"?>
<!-- Generator: Adobe Illustrator 26.2.1, SVG Export Plug-In . SVG Version: 6.00 Build 0)  -->
<svg version="1.1" id="Layer_1" xmlns="http://www.w3.org/2000/svg" xmlns:xlink="http://www.w3.org/1999/xlink" x="0px" y="0px"
	 viewBox="0 0 32 32" enable-background="new 0 0 32 32" xml:space="preserve">
<g id="bugs">
</g>
<g id="reference">
	<g id="manager_1_">
	</g>
</g>
<g id="toolbar-selected">
</g>
<g id="toolbar-gradient">
</g>
<g id="status">
</g>
<g id="controls-positive">
</g>
<g id="controls-negative">
</g>
<g id="footer-enabled">
</g>
<g id="footer-selected">
</g>
<g id="manager">
	<path fill="#9B9B9B" d="M16,2C8.27,2,2,8.27,2,16s6.27,14,14,14s14-6.27,14-14S23.73,2,16,2z M22.71,21.29
		c0.39,0.39,0.39,1.02,0,1.41C22.51,22.9,22.26,23,22,23s-0.51-0.1-0.71-0.29L16,17.41l-5.29,5.29C10.51,22.9,10.26,23,10,23
		s-0.51-0.1-0.71-0.29c-0.39-0.39-0.39-1.02,0-1.41l5.3-5.3L9.3,10.71c-0.39-0.39-0.39-1.02,0-1.41s1.02-0.39,1.41,0L16,14.59
		l5.29-5.29c0.39-0.39,1.02-0.39,1.41,0s0.39,1.02,0,1.41L17.41,16L22.71,21.29z"/>
</g>
</svg>
