<?xml version="1.0" encoding="utf-8"?>
<svg version="1.1" xmlns="http://www.w3.org/2000/svg" xmlns:xlink="http://www.w3.org/1999/xlink" x="0px" y="0px" viewBox="0 0 32 32" xml:space="preserve">
<g><path fill="#9B9B9B" d="M16,2A14,14,0,1,0,30,16,14,14,0,0,0,16,2Zm5.88,18.12a1.24,1.24,0,0,1,0,1.76,1.23,1.23,0,0,1-1.76,0L16,17.77l-4.12,4.11a1.23,1.23,0,0,1-1.76,0,1.24,1.24,0,0,1,0-1.76L14.23,16l-4.11-4.12a1.24,1.24,0,0,1,1.76-1.76L16,14.23l4.12-4.11a1.24,1.24,0,0,1,1.76,1.76L17.77,16Z"/></g>
</svg>
