<?xml version="1.0" encoding="utf-8"?>
<svg version="1.0" xmlns="http://www.w3.org/2000/svg" xmlns:xlink="http://www.w3.org/1999/xlink" x="0px" y="0px" viewBox="0 0 672 672" xml:space="preserve">
<path opacity="0.225" fill="#9B9B9B" d="M440.4,580.4l-120,90L198.2,507.5c2.7-2.3,5.4-4.5,8.1-6.4c33.4-24.8,82-39.3,134.6-53.4L440.4,580.4z  M140.4,180.4l-120,90l87.8,117.1c2.9-2.3,5.7-4.6,8.7-6.8c38.7-28.8,82.6-47,127.7-61.4L140.4,180.4z"/>
<path opacity="0.45" fill="#9B9B9B" d="M482.7,230.2c-29.4,29-79.5,45.3-134.8,60.4c-17.4-18.5-33.1-39.9-44.6-66.4c-13.2-30.3-19.3-64.4-18.1-101.2 c1.1-36.3,9-76,24.1-121.3l142.3,47.4c-17.5,52.5-21.1,91.4-10.7,115.4c8.2,18.9,27.3,35.2,51.7,54.6 C488.7,224.2,485.2,227.7,482.7,230.2z M602.4,328.5c-0.9-1.3-1.7-2.6-2.6-3.9c-3.7,4.1-7.5,8.2-11.5,12.1 c-32.9,32.7-72,54.4-113.6,70.8c0.8,1.1,1.6,2.2,2.3,3.3c19.4,29.5,28.4,65.9,28.4,114.6h150C655.4,447.2,638,382.8,602.4,328.5z"/>
<path opacity="0.75" fill="#9B9B9B" d="M588.3,336.7c-62.6,62.1-147.5,84.6-229.6,106.3c-59.3,15.7-115.3,30.5-152.4,58.1 c-23.7,17.6-50.9,47.7-50.9,124.3H5.4c0-55.3,10-104.4,29.6-145.8c18.5-39,46.1-72.3,81.9-98.9c60.2-44.8,133-64.1,203.4-82.7 c65.9-17.5,128.2-34,162.4-67.8c12.8-12.7,51.9-51.5,24.2-190.1L654,10.7C683.3,157.2,661.8,263.9,588.3,336.7z"/>
</svg>
