<?xml version="1.0" encoding="utf-8"?>
<svg version="1.0" xmlns="http://www.w3.org/2000/svg" xmlns:xlink="http://www.w3.org/1999/xlink" x="0px" y="0px" viewBox="0 0 672 672" xml:space="preserve">
<rect x="155.4" y="175.4" transform="matrix(0.8 -0.6 0.6 0.8 -209.1601 223.3202)" opacity="0.3" fill="#9B9B9B" width="150" height="500"/>
<path opacity="0.6" fill="#9B9B9B" d="M655.4,525.4h-150c0-48.7-9-85.1-28.4-114.6c-17.5-26.6-42.7-46.6-69.5-67.8c-37.5-29.7-80.1-63.3-104.2-118.8 c-13.2-30.3-19.3-64.4-18.1-101.2c1.1-36.3,9-76,24.1-121.3l142.3,47.4c-17.5,52.5-21.1,91.4-10.7,115.4 c9.1,20.9,31.4,38.6,59.6,60.9c31.7,25,71.1,56.2,101.9,103.1C638,382.8,655.4,447.2,655.4,525.4z"/>
<path fill="#9B9B9B" d="M155.4,625.4H5.4c0-55.3,10-104.4,29.6-145.8c18.5-39,46.1-72.3,81.9-98.9c60.2-44.8,133-64.1,203.4-82.7 c65.9-17.5,128.2-34,162.4-67.8c12.8-12.7,51.9-51.5,24.2-190.1l147.1-29.4c29.3,146.5,7.8,253.2-65.7,326 c-62.6,62.1-147.5,84.6-229.6,106.3c-59.3,15.7-115.3,30.5-152.4,58.1C182.6,518.7,155.4,548.8,155.4,625.4z"/>
</svg>
