<?xml version="1.0" encoding="utf-8"?>
<!-- Generator: Adobe Illustrator 26.2.1, SVG Export Plug-In . SVG Version: 6.00 Build 0)  -->
<svg version="1.1" id="Layer_1" xmlns="http://www.w3.org/2000/svg" xmlns:xlink="http://www.w3.org/1999/xlink" x="0px" y="0px"
	 viewBox="0 0 32 32" enable-background="new 0 0 32 32" xml:space="preserve">
<g id="bugs">
</g>
<g id="reference">
	<g id="manager_1_">
	</g>
</g>
<g id="_x28_mask_x29_" display="none">
	<rect display="inline" fill="#FFFFFF" width="32" height="32"/>
</g>
<g id="toolbar-disabled" display="none">
</g>
<g id="toolbar-enabled" display="none">
</g>
<g id="toolbar-pressed" display="none">
</g>
<g id="toolbar-rollover" display="none">
</g>
<g id="toolbar-selected">
</g>
<g id="toolbar-gradient">
</g>
<g id="status">
</g>
<g id="controls-positive">
</g>
<g id="controls-negative">
</g>
<g id="footer-enabled">
</g>
<g id="footer-selected">
</g>
<g id="manager">
	<path fill="#9B9B9B" d="M31.79,27.71L17.29,2.75C17.02,2.28,16.54,2,16,2s-1.02,0.28-1.29,0.75L0.21,27.71
		c-0.28,0.48-0.28,1.06,0,1.54C0.48,29.72,0.96,30,1.5,30h29c0.54,0,1.02-0.28,1.29-0.75C32.07,28.77,32.07,28.19,31.79,27.71z
		 M14,9h4l-0.5,10h-3L14,9z M16,27c-1.38,0-2.5-1.12-2.5-2.5S14.62,22,16,22s2.5,1.12,2.5,2.5S17.38,27,16,27z"/>
</g>
</svg>
