<?xml version="1.0" encoding="utf-8"?>
<svg version="1.1" xmlns="http://www.w3.org/2000/svg" xmlns:xlink="http://www.w3.org/1999/xlink" x="0px" y="0px" viewBox="0 0 32 32" xml:space="preserve">
<g><path fill="#9B9B9B" d="M16,0C7.2,0,0,7.2,0,16s7.2,16,16,16s16-7.2,16-16S24.8,0,16,0z M16,25c-4.4,0-8-3.6-8-8s3.6-8,8-8h0.6 l-2.3-2.3c-0.4-0.4-0.4-1,0-1.4s1-0.4,1.4,0l4,4c0.1,0.1,0.2,0.2,0.2,0.3c0.1,0.2,0.1,0.5,0,0.8c0,0.1-0.1,0.2-0.2,0.3l-4,4 c-0.4,0.4-1,0.4-1.4,0c0,0,0,0,0,0c-0.4-0.4-0.4-1,0-1.4c0,0,0,0,0,0l2.3-2.3H16c-3.3,0-6,2.7-6,6s2.7,6,6,6s6-2.7,6-6 c0-0.6,0.4-1,1-1s1,0.4,1,1C24,21.4,20.4,25,16,25z"/></g>
</svg>
