<?xml version="1.0" encoding="utf-8"?>
<svg version="1.1" xmlns="http://www.w3.org/2000/svg" xmlns:xlink="http://www.w3.org/1999/xlink" x="0px" y="0px" viewBox="0 0 32 32" xml:space="preserve">
<g><path fill="#9B9B9B" d="M22.71,18.71l-6,6c-0.09,0.09-0.2,0.17-0.33,0.22C16.26,24.97,16.13,25,16,25s-0.26-0.03-0.38-0.08 s-0.23-0.12-0.33-0.22l-6-6c-0.39-0.39-0.39-1.02,0-1.41s1.02-0.39,1.41,0l4.3,4.3V9c0-0.55,0.45-1,1-1c0.55,0,1,0.45,1,1v12.59 l4.29-4.29c0.39-0.39,1.02-0.39,1.41,0S23.1,18.32,22.71,18.71z"/></g>
</svg>