<?xml version="1.0" encoding="utf-8"?>
<svg version="1.1" xmlns="http://www.w3.org/2000/svg" xmlns:xlink="http://www.w3.org/1999/xlink" x="0px" y="0px" viewBox="0 0 32 32" xml:space="preserve">
<g><path fill="#9B9B9B" d="M22.71,21.29c0.39,0.39,0.39,1.02,0,1.41C22.51,22.9,22.26,23,22,23s-0.51-0.1-0.71-0.29L16,17.41 l-5.29,5.29C10.51,22.9,10.26,23,10,23s-0.51-0.1-0.71-0.29c-0.39-0.39-0.39-1.02,0-1.41l5.3-5.3L9.3,10.71 c-0.39-0.39-0.39-1.02,0-1.41s1.02-0.39,1.41,0L16,14.59l5.29-5.29c0.39-0.39,1.02-0.39,1.41,0s0.39,1.02,0,1.41L17.41,16 L22.71,21.29z"/></g>
</svg>
