<?xml version="1.0" encoding="utf-8"?>
<svg version="1.1" xmlns="http://www.w3.org/2000/svg" xmlns:xlink="http://www.w3.org/1999/xlink" x="0px" y="0px" viewBox="0 0 32 32" xml:space="preserve">
<g><path fill="#9B9B9B" d="M24,18c0,4.41-3.59,8-8,8s-8-3.59-8-8s3.59-8,8-8h0.59L14.3,7.71c-0.39-0.39-0.39-1.02,0-1.41 s1.02-0.39,1.41,0l4,4c0.09,0.09,0.17,0.2,0.22,0.33c0.1,0.24,0.1,0.52,0,0.76c-0.05,0.12-0.12,0.23-0.22,0.33l-4,4 C15.51,15.9,15.26,16,15,16s-0.51-0.1-0.71-0.29c-0.39-0.39-0.39-1.02,0-1.41l2.3-2.3H16c-3.31,0-6,2.69-6,6s2.69,6,6,6s6-2.69,6-6 c0-0.55,0.45-1,1-1S24,17.45,24,18z"/></g>
</svg>
