<?xml version="1.0" encoding="utf-8"?>
<svg version="1.1" xmlns="http://www.w3.org/2000/svg" xmlns:xlink="http://www.w3.org/1999/xlink" x="0px" y="0px" viewBox="0 0 16 16" enable-background="new 0 0 16 16" xml:space="preserve">

	<path fill="#000000" d="M16,13v3H0v-3H16z"/>
	<path fill="#222222" d="M16,12v1H0v-1H16z"/>
	<linearGradient id="gradient" gradientUnits="userSpaceOnUse" x1="8" y1="6" x2="8" y2="12">
		<stop  offset="0" style="stop-color:#666666"/>
		<stop  offset="1" style="stop-color:#777777"/>
	</linearGradient>
	<path id="base-gradient" fill="url(#gradient)" d="M0,6h1v1H0V6z M0,12h1V8H0V12z M15,6v6h1V6H15z"/>
	<path fill="#444444" d="M0,0v6h16V0H0z M3,5C1.9,5,1,4.1,1,3c0-1.1,0.9-2,2-2s2,0.9,2,2C5,4.1,4.1,5,3,5z M8,5C6.9,5,6,4.1,6,3c0-1.1,0.9-2,2-2s2,0.9,2,2C10,4.1,9.1,5,8,5z"/>
	<path fill="#FFFFFF" d="M15,6v1H1V6H15z M1,12h14V8H1V12z"/>
	<path fill="#111111" d="M0,7h1v1H0V7z"/>
	<path fill="#DDDDDD" d="M15,7v1H1V7H15z"/>
	<path fill="#CCCCCC" d="M8,1C6.9,1,6,1.9,6,3c0,1.1,0.9,2,2,2s2-0.9,2-2C10,1.9,9.1,1,8,1z M8.6,3.6H7.4V2.4h1.2V3.6z"/>
	<path fill="#555555" d="M8.6,2.4v1.2H7.4V2.4H8.6z"/>
	<path fill="#888888" d="M3,1C1.9,1,1,1.9,1,3c0,1.1,0.9,2,2,2s2-0.9,2-2C5,1.9,4.1,1,3,1z M2.6,3.6V2.4L3.8,3L2.6,3.6z"/>
	<path fill="#EEEEEE" d="M3.8,3L2.6,3.6V2.4L3.8,3z"/>

</svg>
