<svg xmlns="http://www.w3.org/2000/svg" viewBox="0 0 60 60">
  <g><path fill="#e6e6e6" d="M60,30A30,30,0,1,1,30,0,30,30,0,0,1,60,30Z"/></g>
  <g><path fill="#9B9B9B" d="M33.53,25.11a4.36,4.36,0,0,0-2.43.75L30,26.61a7.58,7.58,0,0,0-2,1.83l-.72-.15.48-2.94,1-6.6h-2.4L23,40.08l3.55.84a11.23,11.23,0,0,0,2.54.33c3.93,0,6.66-2.94,7.62-8.28C37.58,28.14,36.41,25.11,33.53,25.11Zm.75,7.53c-.89,4.89-3.12,6.9-6.72,6.15l-1.89-.39.93-6a3,3,0,0,1,1.59-2.25L31.49,28a2.48,2.48,0,0,1,1.38-.48C34.34,27.48,34.82,29.43,34.28,32.64Z"/></g>
</svg>
