<svg xmlns="http://www.w3.org/2000/svg" viewBox="0 0 60 60">
  <g><path fill="#e6e6e6" d="M60,30A30,30,0,1,1,30,0,30,30,0,0,1,60,30Z"/></g>
  <g><path fill="#9B9B9B" d="M33.53,25.11c-0.8665,0.003-1.7125,0.2641-2.43,0.75L30,26.61c-0.7712,0.4849-1.4487,1.1048-2,1.83l-0.72-0.15l0.48-2.94l1-6.6h-2.4L23,40.08l3.55,0.84c0.8313,0.2065,1.6835,0.3172,2.54,0.33c3.93,0,6.66-2.94,7.62-8.28C37.58,28.14,36.41,25.11,33.53,25.11z M34.28,32.64c-0.89,4.89-3.12,6.9-6.72,6.15l-1.89-0.39l0.93-6c0.1339-0.9634,0.7266-1.8021,1.59-2.25l3.3-2.15c0.4014-0.2949,0.8822-0.4622,1.38-0.48C34.34,27.48,34.82,29.43,34.28,32.64z"/></g>
</svg>
