<svg xmlns="http://www.w3.org/2000/svg" viewBox="0 0 60 60">
  <g><path fill="#e6e6e6" d="M60,30A30,30,0,1,1,30,0,30,30,0,0,1,60,30Z"/></g>
  <g><path fill="#000000" d="M35.18,18.78,34.1,25.71l-1.23-.3a11.38,11.38,0,0,0-2.55-.33c-3.93,0-6.66,2.94-7.62,8.28-.87,4.83.3,7.86,3.18,7.86a4.36,4.36,0,0,0,2.43-.75l1.14-.75a7.57,7.57,0,0,0,1.95-1.83l.78.15L32.06,41h2l3.48-22.2ZM32.81,33.9a3,3,0,0,1-1.59,2.25l-3.3,2.22a2.56,2.56,0,0,1-1.5.48c-1.35,0-1.83-2-1.29-5.16.9-4.89,3.12-6.9,6.72-6.15l1.89.39Z"/></g>
</svg>
