<svg xmlns="http://www.w3.org/2000/svg" viewBox="0 0 60 60">
  <g><path fill="#e6e6e6" d="M60,30A30,30,0,1,1,30,0,30,30,0,0,1,60,30Z"/></g>
  <g><path fill="#9B9B9B" d="M35.18,18.78l-1.08,6.93l-1.23-0.3c-0.8348-0.206-1.6903-0.3167-2.55-0.33c-3.93,0-6.66,2.94-7.62,8.28c-0.87,4.83,0.3,7.86,3.18,7.86c0.8665-0.003,1.7125-0.2641,2.43-0.75l1.14-0.75c0.7534-0.4894,1.4137-1.1091,1.95-1.83l0.78,0.15L32.06,41h2l3.48-22.2L35.18,18.78z M32.81,33.9c-0.1339,0.9634-0.7266,1.8021-1.59,2.25l-3.3,2.22c-0.4371,0.3136-0.962,0.4816-1.5,0.48c-1.35,0-1.83-2-1.29-5.16c0.9-4.89,3.12-6.9,6.72-6.15l1.89,0.39L32.81,33.9z"/></g>
</svg>
