<svg xmlns="http://www.w3.org/2000/svg" viewBox="0 0 60 60">
  <g><path fill="#e6e6e6" d="M60,30A30,30,0,1,1,30,0,30,30,0,0,1,60,30Z"/></g>
  <g><path fill="#9B9B9B" d="M31.86,21.27l-0.12,1.23H38v2.16h-6.5l-1.77,16.83c0.0464,1.3965-1.0481,2.5662-2.4447,2.6126C27.2102,44.1051,27.135,44.1042,27.06,44.1c-0.7495-0.0157-1.4825-0.2222-2.13-0.6l-4.32-2.28l1-1.95l5,2.61l0.66-0.33l1.83-16.89h-5.4V22.5h5.64l0.15-1.41c0.39-3.72,2.25-5.19,5.76-5.19h4.14v2.16h-4.11C33.12,18.06,32.1,18.93,31.86,21.27z"/></g>
</svg>
