<svg xmlns="http://www.w3.org/2000/svg" viewBox="0 0 60 60">
  <g><path fill="#e6e6e6" d="M60,30A30,30,0,1,1,30,0,30,30,0,0,1,60,30Z"/></g>
  <g><path fill="#9B9B9B" d="M30.54,20.28c0.21-1.14,0.81-1.59,2.13-1.59c1.5,0,2.07,0.63,1.83,1.95c-0.21,1.14-0.81,1.59-2.13,1.59C30.87,22.23,30.3,21.6,30.54,20.28z M36.69,35.76l-6.09,3.18L30,38.37l2.31-10c0.45-2-0.54-3.24-2.22-3.24c-0.7032,0.0239-1.3899,0.2196-2,0.57l-5.79,3.06l1,1.92l6.09-3.18l0.57,0.57l-2.31,10c-0.45,2,0.54,3.24,2.22,3.24c0.7032-0.0239,1.3899-0.2196,2-0.57l5.79-3.06L36.69,35.76z"/></g>
</svg>
