<svg xmlns="http://www.w3.org/2000/svg" viewBox="0 0 60 60">
  <g><path fill="#e6e6e6" d="M60,30A30,30,0,1,1,30,0,30,30,0,0,1,60,30Z"/></g>
  <g><path fill="#9B9B9B" d="M27.4,26.31c-0.18,0.9933,0.33,1.6233,1.53,1.89l3.42,0.78c2.79,0.63,3.93,2.19,3.51,4.59c-0.54,3-3.15,4.53-7,4.53c-3.42,0-5.94-1.26-5.64-4.83h2.37c-0.12,1.92,1.08,2.58,3.3,2.58c2.58,0,4.23-0.81,4.53-2.46c0.18-1.11-0.39-1.92-1.89-2.25L28,30.36c-2.52-0.57-3.45-2-3.06-4.11c0.48-2.79,2.91-4.35,6.42-4.35c3,0,5.67,1.17,5.46,4.47h-2.28c0-1.62-1.14-2.25-3.15-2.25C29.08,24.12,27.64,24.9,27.4,26.31z"/></g>
</svg>
