<svg xmlns="http://www.w3.org/2000/svg" viewBox="0 0 60 60">
  <g><path fill="#e6e6e6" d="M60,30A30,30,0,1,1,30,0,30,30,0,0,1,60,30Z"/></g>
  <g><path fill="#9B9B9B" d="M27.4,26.31q-.27,1.49,1.53,1.89l3.42.78c2.79.63,3.93,2.19,3.51,4.59-.54,3-3.15,4.53-7,4.53-3.42,0-5.94-1.26-5.64-4.83h2.37c-.12,1.92,1.08,2.58,3.3,2.58,2.58,0,4.23-.81,4.53-2.46.18-1.11-.39-1.92-1.89-2.25L28,30.36c-2.52-.57-3.45-2-3.06-4.11.48-2.79,2.91-4.35,6.42-4.35,3,0,5.67,1.17,5.46,4.47H34.54c0-1.62-1.14-2.25-3.15-2.25C29.08,24.12,27.64,24.9,27.4,26.31Z"/></g>
</svg>
